<?xml version="1.0" encoding="utf-8"?>
<!-- Generator: Adobe Illustrator 24.3.0, SVG Export Plug-In . SVG Version: 6.00 Build 0)  -->
<svg version="1.1" id="Layer_1" xmlns="http://www.w3.org/2000/svg" xmlns:xlink="http://www.w3.org/1999/xlink" x="0px" y="0px"
	 viewBox="0 0 1080 82.69" style="enable-background:new 0 0 1080 82.69;" xml:space="preserve">
<style type="text/css">
	.st0{fill:#010101;}
	.st1{fill:#247C9D;}
	.st2{fill:#BF5A27;}
	.st3{fill:#0D4F9F;}
	.st4{fill:#A51D47;}
	.st5{fill:#C7A633;}
	.st6{fill:#78C2EC;}
	.st7{fill:#FCB515;}
	.st8{fill:#F89938;}
	.st9{fill:#C62032;}
	.st10{fill:#8A1739;}
	.st11{fill:#037B3E;}
	.st12{fill:#C8202F;}
	.st13{fill:#3A9C9C;}
	.st14{fill:#33669A;}
	.st15{fill:#1E4489;}
	.st16{fill:#D92D27;}
	.st17{fill:#2A71B9;}
	.st18{fill:#1A2E5A;}
	.st19{fill:#006948;}
	.st20{fill:#21285D;}
	.st21{fill:#F4C51B;}
	.st22{fill:#233E95;}
	.st23{fill:#EC2029;}
	.st24{fill:#034C54;}
	.st25{fill:#77ADDE;}
	.st26{fill:#B32025;}
	.st27{fill:#D52D27;}
	.st28{fill:#016D75;}
	.st29{fill:#59595B;}
	.st30{fill:#025D5D;}
	.st31{fill:#D72638;}
	.st32{fill:#E12726;}
	.st33{fill:#EE3441;}
	.st34{fill:#1B459C;}
	.st35{fill:#306EB6;}
	.st36{fill:#01573F;}
	.st37{fill:#901923;}
	.st38{fill:#C02032;}
	.st39{fill:#FFCD05;}
	.st40{fill:#ED2024;}
	.st41{fill:#FAA41A;}
	.st42{fill:#F7EC13;}
	.st43{fill:#0C8140;}
	.st44{fill:#3953A4;}
	.st45{fill:#4D2A7C;}
	.st46{fill:#CD8BBC;}
	.st47{fill:none;}
</style>
<g>
	<g>
		<path class="st0" d="M32.99,0c-6.41,0-11.63,4.7-11.63,10.46c0,2,0.63,3.94,1.81,5.61l0.02,0.03c0.61,0.76,0.42,1.81-0.42,2.36
			c-0.33,0.21-0.72,0.32-1.09,0.32c-0.58,0-1.16-0.24-1.52-0.69c-0.05-0.06-0.11-0.14-0.15-0.2c-0.81-1.15-1.42-2.4-1.82-3.7
			c-6.15,0.26-11.07,4.85-11.07,10.45c0,0.87,0.12,1.71,0.35,2.54c1.35-0.35,2.73-0.52,4.15-0.52c1.03,0,1.88,0.76,1.88,1.69
			s-0.84,1.69-1.88,1.69c-1.59,0-3.13,0.28-4.58,0.85C2.76,32.54,0,36.32,0,40.5c0,4.22,2.79,8,7.1,9.65
			c1.43,0.54,2.95,0.82,4.52,0.82c1.03,0,1.88,0.76,1.88,1.69c0,0.93-0.84,1.69-1.88,1.69c-1.34,0-2.66-0.16-3.95-0.46
			c-0.11,0.59-0.17,1.2-0.17,1.81c0,5.52,4.77,10.05,10.8,10.43c0.44-1.29,1.1-2.52,1.95-3.66c0.57-0.77,1.74-0.98,2.6-0.45
			c0.86,0.52,1.09,1.57,0.5,2.34c-0.87,1.16-1.46,2.44-1.76,3.8c-0.15,0.67-0.23,1.36-0.23,2.05c0,5.76,5.22,10.46,11.63,10.46
			c4.84,0,9.17-2.71,10.87-6.78v-7.7c-3.19,0.23-6.14,1.59-8.04,3.75c-0.37,0.43-0.92,0.65-1.48,0.65c-0.4,0-0.81-0.12-1.15-0.37
			c-0.81-0.58-0.96-1.64-0.31-2.37c2.59-2.97,6.66-4.82,10.98-5.05V19.06c-6.25-0.83-11.34-4.37-12.97-9.15
			c-0.3-0.9,0.26-1.83,1.25-2.11c0.99-0.27,2.03,0.23,2.34,1.12c1.14,3.34,4.86,5.94,9.39,6.71V6.78C42.16,2.71,37.83,0,32.99,0z
			 M33.4,53.32c0.03,0.11,0.06,0.22,0.08,0.32c0.01,0.05,0.03,0.11,0.04,0.16c0.01,0.05,0.02,0.11,0.03,0.16
			c0.01,0.03,0.01,0.05,0.02,0.08c0.11,0.6,0.17,1.2,0.17,1.82c0,0.01,0,0.03,0,0.04c0,0.01,0,0.03,0,0.04c0,0.03,0,0.06-0.01,0.09
			c0,0.06-0.01,0.11-0.03,0.17c0,0.03-0.01,0.05-0.02,0.08c-0.01,0.03-0.02,0.06-0.02,0.08c-0.02,0.05-0.04,0.1-0.06,0.15
			c0,0,0,0,0,0c-0.02,0.05-0.05,0.1-0.08,0.15c-0.02,0.04-0.04,0.07-0.07,0.11c-0.02,0.03-0.05,0.07-0.08,0.1
			c-0.03,0.03-0.06,0.07-0.09,0.1c-0.17,0.17-0.37,0.31-0.61,0.42c-0.02,0.01-0.04,0.02-0.06,0.03c-0.07,0.02-0.13,0.05-0.2,0.07
			c-0.03,0.01-0.05,0.02-0.08,0.02c-0.03,0.01-0.06,0.01-0.09,0.02c-0.06,0.01-0.12,0.02-0.19,0.03c-0.05,0-0.09,0.01-0.14,0.01
			c-0.02,0-0.03,0-0.05,0c-0.02,0-0.03,0-0.05,0c-0.05,0-0.1,0-0.14-0.01c-0.07,0-0.13-0.01-0.19-0.03
			c-0.07-0.01-0.13-0.03-0.19-0.04c-0.06-0.02-0.12-0.04-0.18-0.06c-0.12-0.05-0.23-0.11-0.34-0.18c-0.03-0.02-0.05-0.03-0.08-0.05
			c-0.05-0.04-0.1-0.08-0.15-0.12c-0.03-0.03-0.06-0.06-0.09-0.09c-0.03-0.03-0.06-0.06-0.08-0.09c0,0,0,0,0,0
			c-0.07-0.09-0.13-0.18-0.18-0.28c-0.03-0.05-0.05-0.1-0.07-0.15c-0.03-0.09-0.06-0.17-0.08-0.26c0-0.01,0-0.01,0-0.02
			c-0.02-0.1-0.03-0.19-0.03-0.29c0-0.03,0-0.06,0-0.09c0-0.1-0.01-0.2-0.01-0.3c0-0.06-0.01-0.12-0.01-0.18
			c-0.02-0.18-0.04-0.36-0.07-0.53c-0.01-0.07-0.03-0.14-0.04-0.22c-0.04-0.18-0.08-0.36-0.13-0.53c-0.03-0.09-0.05-0.19-0.09-0.28
			c-0.03-0.09-0.06-0.18-0.1-0.28c-0.08-0.22-0.17-0.43-0.28-0.64c-0.02-0.05-0.04-0.09-0.07-0.14c-0.02-0.04-0.05-0.09-0.07-0.13
			c-0.05-0.09-0.1-0.18-0.15-0.26c-0.01-0.01-0.01-0.02-0.02-0.03c-0.05-0.08-0.1-0.16-0.15-0.23c-0.05-0.09-0.11-0.17-0.17-0.26
			c-0.07-0.11-0.15-0.21-0.23-0.31c-0.2-0.26-0.43-0.52-0.67-0.77c-0.04-0.04-0.09-0.09-0.13-0.13c-0.06-0.06-0.12-0.12-0.18-0.17
			c-0.07-0.06-0.13-0.12-0.2-0.18c0-0.01-0.01-0.01-0.01-0.01c-0.03-0.03-0.05-0.05-0.08-0.07c-0.07-0.06-0.14-0.12-0.21-0.18
			c-0.05-0.04-0.1-0.08-0.15-0.12c-0.08-0.07-0.17-0.13-0.26-0.2c-0.23-0.17-0.46-0.33-0.7-0.48c-0.1-0.06-0.2-0.12-0.3-0.18
			c-0.06-0.04-0.12-0.07-0.18-0.1c-0.06-0.04-0.13-0.08-0.2-0.11c-0.04-0.02-0.08-0.04-0.11-0.06c-0.12-0.06-0.24-0.12-0.36-0.18
			c-0.4-0.19-0.82-0.36-1.26-0.51c-0.15-0.05-0.29-0.1-0.44-0.14c-0.15-0.05-0.3-0.09-0.45-0.13c-0.3-0.08-0.61-0.15-0.93-0.21
			c-0.16-0.03-0.31-0.06-0.48-0.09c-0.23-0.04-0.44-0.11-0.63-0.21c-0.24-0.13-0.45-0.3-0.6-0.51c-0.02-0.03-0.04-0.05-0.06-0.08
			c-0.03-0.05-0.06-0.1-0.09-0.15c-0.05-0.09-0.08-0.18-0.11-0.27v0c-0.01-0.04-0.03-0.09-0.03-0.14c0-0.01,0-0.01,0-0.02
			c-0.01-0.04-0.01-0.09-0.02-0.13c-0.01-0.05-0.01-0.1-0.01-0.14v-0.01c0-0.03,0-0.07,0-0.1c0-0.02,0-0.04,0.01-0.06
			c0,0,0-0.01,0-0.02c0-0.03,0.01-0.07,0.01-0.1c0.01-0.05,0.02-0.1,0.04-0.15c0.01-0.05,0.03-0.1,0.05-0.15
			c0.1-0.25,0.27-0.47,0.48-0.65c0.03-0.03,0.06-0.05,0.1-0.08c0.13-0.09,0.27-0.17,0.42-0.23c0.03-0.01,0.05-0.02,0.08-0.03
			c0.06-0.02,0.12-0.04,0.19-0.05c0.05-0.01,0.11-0.02,0.16-0.03c0.05-0.01,0.11-0.02,0.16-0.02c0.16-0.02,0.32-0.01,0.49,0.02
			c0.43,0.07,0.86,0.15,1.28,0.25c0.2,0.05,0.39,0.1,0.59,0.15c0.06,0.02,0.12,0.03,0.17,0.05c0.05,0.01,0.11,0.03,0.17,0.05
			c0.1,0.03,0.2,0.06,0.3,0.09c0.1,0.03,0.2,0.06,0.3,0.1c0.17,0.06,0.34,0.11,0.5,0.17c0.1,0.04,0.2,0.07,0.29,0.11
			c0.11,0.04,0.22,0.09,0.33,0.13s0.22,0.09,0.32,0.14c0.09,0.04,0.19,0.08,0.28,0.13c0.09,0.04,0.18,0.09,0.27,0.13
			c0.12,0.06,0.24,0.12,0.35,0.18c0.24,0.12,0.47,0.25,0.7,0.39c0.17,0.1,0.34,0.2,0.5,0.31c0,0,0,0,0,0
			c0.16,0.1,0.33,0.21,0.48,0.32c0.4,0.28,0.77,0.57,1.13,0.88c0.07,0.05,0.13,0.11,0.2,0.17c0.14,0.13,0.29,0.26,0.42,0.4
			c0.07,0.06,0.13,0.13,0.2,0.2c0.07,0.07,0.13,0.13,0.19,0.2c0.23,0.25,0.45,0.5,0.66,0.76c0.03,0.04,0.07,0.08,0.1,0.13
			c0.1,0.13,0.19,0.25,0.28,0.38c0.08,0.11,0.15,0.22,0.23,0.33c0.01,0.01,0.02,0.02,0.02,0.03c0.07,0.1,0.13,0.21,0.2,0.31
			c0,0,0,0,0,0c0.07,0.11,0.13,0.22,0.19,0.33c0.04,0.07,0.07,0.13,0.11,0.19c0.06,0.11,0.11,0.22,0.17,0.33
			c0.05,0.11,0.11,0.22,0.16,0.33c0.04,0.09,0.08,0.18,0.12,0.27c0.03,0.07,0.06,0.15,0.09,0.22C33.19,52.6,33.31,52.95,33.4,53.32z
			 M31.12,23.12c0.29,0,0.56,0.06,0.81,0.17c0.03,0.01,0.05,0.03,0.08,0.04c0.05,0.03,0.1,0.05,0.15,0.08c0,0,0,0,0,0
			c0.05,0.03,0.1,0.06,0.14,0.1c0.05,0.03,0.09,0.07,0.13,0.11c0.13,0.12,0.24,0.25,0.32,0.39c0.03,0.05,0.06,0.1,0.08,0.14v0
			c0.02,0.05,0.04,0.1,0.06,0.15c0.05,0.16,0.09,0.33,0.09,0.5c0,1.2-0.2,2.37-0.57,3.48c-0.55,1.66-1.5,3.17-2.75,4.45
			c-0.18,0.18-0.36,0.36-0.55,0.53c-0.36,0.32-0.73,0.63-1.13,0.91c-0.06,0.04-0.12,0.09-0.18,0.13c-0.11,0.08-0.23,0.16-0.35,0.23
			c-0.22,0.14-0.45,0.28-0.68,0.41c-0.08,0.04-0.16,0.09-0.23,0.13c-0.31,0.17-0.64,0.33-0.97,0.48c-0.17,0.07-0.33,0.14-0.5,0.21
			c-0.09,0.03-0.17,0.07-0.26,0.1c-0.17,0.06-0.34,0.12-0.52,0.18c-0.44,0.15-0.89,0.27-1.35,0.38c-0.03,0.01-0.07,0.01-0.1,0.02
			c-0.04,0.01-0.09,0.02-0.14,0.02c-0.08,0.01-0.15,0.02-0.22,0.02c-0.21,0-0.42-0.03-0.61-0.09c-0.19-0.06-0.38-0.15-0.54-0.26
			c-0.08-0.05-0.16-0.12-0.23-0.18c-0.03-0.03-0.07-0.07-0.1-0.11c-0.1-0.11-0.18-0.23-0.24-0.36c-0.04-0.09-0.08-0.18-0.11-0.27
			c-0.16-0.57,0.02-1.14,0.43-1.55c0.03-0.03,0.07-0.07,0.11-0.1c0.07-0.06,0.15-0.12,0.24-0.17c0.17-0.1,0.37-0.18,0.58-0.23
			c2.32-0.53,4.26-1.79,5.54-3.48c0.07-0.1,0.14-0.19,0.21-0.29c0.03-0.05,0.07-0.1,0.1-0.15c0.1-0.15,0.2-0.3,0.28-0.46
			c0,0,0,0,0,0c0.09-0.15,0.17-0.31,0.25-0.48c0.08-0.16,0.15-0.32,0.22-0.49c0.03-0.07,0.05-0.14,0.08-0.21
			c0.01-0.03,0.02-0.07,0.04-0.11c0.03-0.07,0.05-0.15,0.08-0.22c0.01-0.03,0.02-0.06,0.03-0.1c0.02-0.07,0.04-0.14,0.07-0.22
			c0.2-0.69,0.3-1.41,0.3-2.16c0-0.2,0.04-0.4,0.11-0.58l0,0c0.03-0.08,0.07-0.15,0.11-0.22c0,0,0,0,0,0
			c0.1-0.17,0.23-0.31,0.39-0.44c0.13-0.11,0.29-0.2,0.45-0.27c0.05-0.02,0.11-0.04,0.16-0.06C30.67,23.16,30.89,23.12,31.12,23.12z
			 M28.77,27.48c0.02-0.06,0.04-0.12,0.06-0.18C28.82,27.36,28.8,27.42,28.77,27.48z"/>
		<path class="st0" d="M67.94,62.61c0.24-0.28,0.37-0.63,0.37-1v-6.07c0.62-0.52,1.02-1.31,1.02-2.19c0-1.58-1.28-2.86-2.86-2.86
			c-1.58,0-2.86,1.28-2.86,2.86c0,1.13,0.66,2.11,1.62,2.57v5.11l-3.25,3.79c-0.21-0.05-0.42-0.07-0.64-0.07
			c-1.58,0-2.86,1.28-2.86,2.86c0,1.58,1.28,2.86,2.86,2.86c1.58,0,2.86-1.28,2.86-2.86c0-0.2-0.02-0.39-0.06-0.57L67.94,62.61z"/>
		<path class="st0" d="M92.27,27.11l-4.97-4.97c0.04-0.2,0.07-0.4,0.07-0.61c0-1.58-1.28-2.86-2.86-2.86
			c-1.58,0-2.86,1.28-2.86,2.86c0,1.58,1.28,2.86,2.86,2.86c0.21,0,0.42-0.02,0.61-0.07l4.52,4.52v23.2l-4.52,4.52
			c-0.2-0.04-0.4-0.07-0.61-0.07c-1.58,0-2.86,1.28-2.86,2.86c0,1.58,1.28,2.86,2.86,2.86c1.58,0,2.86-1.28,2.86-2.86
			c0-0.21-0.02-0.42-0.07-0.61l4.97-4.97c0.29-0.29,0.45-0.68,0.45-1.09V28.2C92.72,27.79,92.56,27.4,92.27,27.11z"/>
		<path class="st0" d="M56.9,74.61c-0.3,0-0.59,0.05-0.87,0.13l-3.32-3.32V47.19h16.9c0.41,0,0.8-0.16,1.09-0.45l5.91-5.91h3.78
			c0.46,0.97,1.44,1.64,2.58,1.64c1.58,0,2.86-1.28,2.86-2.86c0-1.58-1.28-2.86-2.86-2.86c-0.87,0-1.65,0.39-2.17,1h-4.83
			c-0.41,0-0.8,0.16-1.09,0.45l-5.91,5.91H52.72V9.13l2.93-2.93c0.2,0.04,0.4,0.07,0.61,0.07c1.58,0,2.86-1.28,2.86-2.86
			c0-1.58-1.28-2.86-2.86-2.86S53.4,1.82,53.4,3.4c0,0.21,0.02,0.42,0.07,0.61L50.09,7.4c-0.29,0.29-0.45,0.68-0.45,1.09v63.58
			c0,0.41,0.16,0.8,0.45,1.09l3.97,3.97c-0.01,0.11-0.02,0.23-0.02,0.34c0,1.58,1.28,2.86,2.86,2.86c1.58,0,2.86-1.28,2.86-2.86
			C59.76,75.89,58.48,74.61,56.9,74.61z"/>
		<path class="st0" d="M56.95,16.09c0,1.58,1.28,2.86,2.86,2.86c0.13,0,0.25-0.01,0.37-0.03l3.82,4.1L64.08,31
			c-0.83,0.5-1.39,1.41-1.39,2.45c0,1.58,1.28,2.86,2.86,2.86c1.58,0,2.86-1.28,2.86-2.86c0-0.98-0.5-1.85-1.25-2.36l-0.08-8.7
			c0-0.39-0.15-0.76-0.41-1.04l-4.12-4.42c0.08-0.27,0.13-0.55,0.13-0.84c0-1.58-1.28-2.86-2.86-2.86
			C58.23,13.23,56.95,14.51,56.95,16.09z"/>
		<path class="st0" d="M64.9,6.56c0.34,0,0.66-0.06,0.97-0.17l6.08,5.29v13.45c0,0.39,0.15,0.77,0.41,1.05l3.33,3.57
			c0,0.03,0,0.05,0,0.08c0,1.58,1.28,2.86,2.86,2.86s2.86-1.28,2.86-2.86c0-1.58-1.28-2.86-2.86-2.86c-0.37,0-0.72,0.07-1.05,0.2
			l-2.47-2.65V10.98c0-0.45-0.19-0.87-0.53-1.16l-6.75-5.87c0.01-0.08,0.01-0.16,0.01-0.24c0-1.58-1.28-2.86-2.86-2.86
			c-1.58,0-2.86,1.28-2.86,2.86C62.04,5.28,63.32,6.56,64.9,6.56z"/>
		<path class="st0" d="M79.47,46.63c-1.58,0-2.86,1.28-2.86,2.86c0,0.26,0.04,0.52,0.1,0.76l-2.55,3.02c-0.24,0.28-0.36,0.63-0.36,1
			v14.92l-6.33,6.07c-0.03,0-0.05,0-0.08,0c-1.58,0-2.86,1.28-2.86,2.86c0,1.58,1.28,2.86,2.86,2.86c1.58,0,2.86-1.28,2.86-2.86
			c0-0.37-0.07-0.73-0.21-1.06l6.36-6.09c0.3-0.29,0.47-0.69,0.47-1.11V54.83L79,52.31c0.15,0.02,0.31,0.04,0.47,0.04
			c1.58,0,2.86-1.28,2.86-2.86S81.05,46.63,79.47,46.63z"/>
	</g>
	<path class="st0" d="M153.98,62.59l-7.07,18.37H126.7L159.31,0h25.19l34.28,80.96h-21.25l-7.53-18.37H153.98z M184.52,46.84
		c-7.54-18.56-11.2-28.01-13.14-34.2h-0.11c-1.81,6.06-6.11,18.37-12.2,34.2H184.52z"/>
	<path class="st0" d="M249.47,0v80.96h-19.65V0H249.47z"/>
	<path class="st40" d="M385.4,40.2c0,22.44-14.97,42.49-44.41,42.49c-27.46,0-43.14-18.76-43.14-42.4
		c0-22.27,16.61-42.01,44.05-42.01C370.17-1.72,385.4,18.12,385.4,40.2z M318.56,40.05c0,15.31,7.76,27.3,23.54,27.3
		c16.3,0,22.59-13.75,22.59-26.91c0-14.35-6.99-26.81-23.38-26.81C325.54,13.62,318.56,26.4,318.56,40.05z"/>
	<path class="st40" d="M448.31,58.15c-2.42-11.08-9.88-33.07-18.02-58.15h-28.4v80.96h17.7V51.45c0-13.79-0.74-29.52-1.34-38.94
		h0.11c4.3,15.35,12.81,42.36,20.23,68.45h9.82V58.15H448.31z"/>
	<path class="st41" d="M495.56,0v80.96h-18.94V49.95c0-13.95,0.1-28.47,0.56-37.45h-0.11c-4.02,14.96-11.63,38.7-21.17,68.46h-7.47
		V58.15C451.86,45.37,459.17,24.1,467.04,0H495.56z"/>
	<path class="st41" d="M517.54,80.96V0h23.27c22.75,34.72,31.82,47.35,36.9,56.97h0.23c-0.79-8.5-0.68-23.65-0.68-36.97V0h18v80.96
		h-21.81c-7.63-12.06-33.54-52.3-38.36-61.55h-0.23c0.68,10,0.68,21.51,0.68,35.89v25.66H517.54z"/>
	<path class="st42" d="M636.97,0v80.96h-19.65V0H636.97z"/>
	<path class="st43" d="M681.32,80.96L648.32,0h21.74l14.26,38.55c5.37,14.58,7.65,22.42,9.06,27.58h0.23
		c1.26-4.68,2.39-8.1,9.98-29.05L717.38,0h21.02l-33.57,80.96H681.32z"/>
	<path class="st43" d="M782.79,15.73V0h-33.96v80.96h33.96V65.23h-14.32V46.8h14.32V31.07h-14.32V15.73H782.79z"/>
	<rect x="782.79" y="31.07" class="st44" width="30.87" height="15.73"/>
	<rect x="782.79" y="0" class="st44" width="33.31" height="15.73"/>
	<polygon class="st44" points="818.71,65.23 816.45,80.96 782.79,80.96 782.79,65.23 	"/>
	<path class="st44" d="M853.89,49.76v31.2h-19.45V0h44.09c18.67,0,29.36,9.21,29.36,23.13c0,10.45-6.08,16.61-14.09,19.15
		c3.31,1.31,12.01,4.49,12.01,19.03v4.04c0,5.55-0.1,11.78,1.02,15.61h-20.17c-1.35-3.56-1.51-8.35-1.51-16.94v-2.66
		c0-8.18-3-11.6-14.8-11.6H853.89z M853.89,35.03h20.25c9.54,0,13.67-3.44,13.67-10.27c0-6.4-4.23-10.03-13.5-10.03h-20.42V35.03z"
		/>
	<path class="st45" d="M935.48,56.7c2.32,6.99,7.91,11.58,21.35,11.58c12.58,0,16.22-3.84,16.22-9.06c0-5.58-3.73-8.72-20.79-11.62
		c-28.1-4.81-33.2-13.93-33.2-24.79c0-16.17,15.57-24.43,34.7-24.43c27.79,0,35.33,14.29,36.25,23.7h-19.68
		c-1.15-4.01-3.84-9.38-17.19-9.38c-9.36,0-14.1,2.98-14.1,8.21c0,4.68,3.33,7.03,18.53,9.76c30.76,5.52,35.58,14.81,35.58,26.55
		c0,14.03-11.01,25.37-38.17,25.37c-25.33,0-36.74-11.3-39.19-25.88H935.48z"/>
	<path class="st46" d="M1074.94,46.8h-45.18v18.43H1080l-2.26,15.73h-67.63V0h67.27v15.73h-47.63v15.33h45.18V46.8z"/>
</g>
</svg>
